Format : AVI
Format/Info : Audio Video Interleave
Format profile : OpenDML
File size : 1.92 GiB
Duration : 1h 58mn
Overall bit rate : 2 321 Kbps
Writing library : MPlayer

Video
ID : 0
Format : MPEG-4 Visual
Format profile : Advanced Simple@L5
Format settings, BVOP : Yes
Format settings, QPel : No
Format settings, GMC : No warppoints
Format settings, Matrix : Default (MPEG)
Codec ID : XVID
Codec ID/Hint : XviD
Duration : 1h 58mn
Bit rate : 1 868 Kbps
Width : 720 pixels
Height : 304 pixels
Display aspect ratio : 2.35:1
Frame rate : 23.976 fps
Color space : YUV
Chroma subsampling : 4:2:0
Bit depth : 8 bits
Scan type : Progressive
Bits/(Pixel*Frame) : 0.356
Stream size : 1.55 GiB (80%)
Writing library : XviD 1.2.1 (UTC 2008-12-04)

Audio
ID : 1
Format : AC-3
Format/Info : Audio Coding 3
Mode extension : CM (complete main)
Codec ID : 2000
Duration : 1h 58mn
Bit rate mode : Constant
Bit rate : 448 Kbps
Channel(s) : 6 channels
Channel positions : Front: L C R, Side: L R, LFE
Sampling rate : 48.0 KHz
Bit depth : 16 bits
Stream size : 380 MiB (19%)
Alignment : Split accross interleaves
Interleave, duration : 500 ms (11.99 video frames)
Interleave, preload duration : 500 ms



 
http://www.imdb.com/title/tt1104001/







Users: 7.2/10 (44,047 votes) 491 reviews | Critics: 324 reviews Metascore: 49/100 (based on 40 reviews from Metacritic.com)

The son of a virtual world designer goes looking for his father and ends up inside the digital world that his father designed. He meets his father's creation turned bad and a unique ally who was born inside the digital domain of The Grid.
Director:
Joseph Kosinski
Writers:
Edward Kitsis (screenplay), Adam Horowitz (screenplay), and 6 more credits »
Stars:
Jeff Bridges, Garrett Hedlund and Olivia Wilde

